<mxfile host="Electron" modified="2023-09-20T18:33:42.087Z" agent="Mozilla/5.0 (Windows NT 10.0; Win64; x64) AppleWebKit/537.36 (KHTML, like Gecko) draw.io/21.6.8 Chrome/114.0.5735.289 Electron/25.5.0 Safari/537.36" etag="FPiX93NUMJK2O4catfMO" version="21.6.8" type="device">
  <diagram name="Page-1" id="zKdsem6qxB3Y2yCqxiwt">
    <mxGraphModel dx="1036" dy="623" grid="1" gridSize="10" guides="1" tooltips="1" connect="1" arrows="1" fold="1" page="1" pageScale="1" pageWidth="850" pageHeight="1100" math="0" shadow="0">
      <root>
        <mxCell id="0" />
        <mxCell id="1" parent="0" />
        <mxCell id="_9hxfhh7ME3PsETOXXOW-1" value="" style="swimlane;startSize=0;fillColor=#f5f0f0;gradientColor=none;swimlaneFillColor=none;" vertex="1" parent="1">
          <mxGeometry x="256" y="230" width="444" height="770" as="geometry" />
        </mxCell>
        <mxCell id="_9hxfhh7ME3PsETOXXOW-6" value="Registration" style="ellipse;whiteSpace=wrap;html=1;fillColor=#f5f5f5;" vertex="1" parent="_9hxfhh7ME3PsETOXXOW-1">
          <mxGeometry x="100" y="16" width="160" height="40" as="geometry" />
        </mxCell>
        <mxCell id="_9hxfhh7ME3PsETOXXOW-8" value="Login" style="ellipse;whiteSpace=wrap;html=1;fillColor=#f5f5f5;" vertex="1" parent="_9hxfhh7ME3PsETOXXOW-1">
          <mxGeometry x="100" y="76" width="160" height="40" as="geometry" />
        </mxCell>
        <mxCell id="_9hxfhh7ME3PsETOXXOW-9" value="Payment" style="ellipse;whiteSpace=wrap;html=1;fillColor=#f5f5f5;" vertex="1" parent="_9hxfhh7ME3PsETOXXOW-1">
          <mxGeometry x="104" y="334" width="160" height="40" as="geometry" />
        </mxCell>
        <mxCell id="_9hxfhh7ME3PsETOXXOW-10" value="Search Product" style="ellipse;whiteSpace=wrap;html=1;fillColor=#f5f5f5;" vertex="1" parent="_9hxfhh7ME3PsETOXXOW-1">
          <mxGeometry x="101" y="130" width="160" height="40" as="geometry" />
        </mxCell>
        <mxCell id="_9hxfhh7ME3PsETOXXOW-11" value="Add Cart" style="ellipse;whiteSpace=wrap;html=1;fillColor=#f5f5f5;" vertex="1" parent="_9hxfhh7ME3PsETOXXOW-1">
          <mxGeometry x="105" y="238" width="160" height="40" as="geometry" />
        </mxCell>
        <mxCell id="_9hxfhh7ME3PsETOXXOW-12" value="View Product Details" style="ellipse;whiteSpace=wrap;html=1;fillColor=#f5f5f5;" vertex="1" parent="_9hxfhh7ME3PsETOXXOW-1">
          <mxGeometry x="104" y="181" width="160" height="40" as="geometry" />
        </mxCell>
        <mxCell id="_9hxfhh7ME3PsETOXXOW-13" value="Manage Product" style="ellipse;whiteSpace=wrap;html=1;fillColor=#f5f5f5;" vertex="1" parent="_9hxfhh7ME3PsETOXXOW-1">
          <mxGeometry x="104" y="437" width="160" height="40" as="geometry" />
        </mxCell>
        <mxCell id="_9hxfhh7ME3PsETOXXOW-14" value="Manage Category" style="ellipse;whiteSpace=wrap;html=1;fillColor=#f5f5f5;" vertex="1" parent="_9hxfhh7ME3PsETOXXOW-1">
          <mxGeometry x="104" y="487" width="160" height="40" as="geometry" />
        </mxCell>
        <mxCell id="_9hxfhh7ME3PsETOXXOW-15" value="Manage Order" style="ellipse;whiteSpace=wrap;html=1;fillColor=#f5f5f5;" vertex="1" parent="_9hxfhh7ME3PsETOXXOW-1">
          <mxGeometry x="105" y="542" width="160" height="40" as="geometry" />
        </mxCell>
        <mxCell id="_9hxfhh7ME3PsETOXXOW-16" value="Mnaage Cuppon" style="ellipse;whiteSpace=wrap;html=1;fillColor=#f5f5f5;" vertex="1" parent="_9hxfhh7ME3PsETOXXOW-1">
          <mxGeometry x="105" y="592" width="160" height="40" as="geometry" />
        </mxCell>
        <mxCell id="_9hxfhh7ME3PsETOXXOW-17" value="Check Out" style="ellipse;whiteSpace=wrap;html=1;fillColor=#f5f5f5;" vertex="1" parent="_9hxfhh7ME3PsETOXXOW-1">
          <mxGeometry x="105" y="286" width="160" height="40" as="geometry" />
        </mxCell>
        <mxCell id="_9hxfhh7ME3PsETOXXOW-19" value="&amp;lt;&amp;lt;extend&amp;gt;&amp;gt;" style="endArrow=open;endSize=12;dashed=1;html=1;rounded=0;exitX=1;exitY=0.5;exitDx=0;exitDy=0;entryX=1;entryY=0.5;entryDx=0;entryDy=0;edgeStyle=orthogonalEdgeStyle;curved=1;" edge="1" parent="_9hxfhh7ME3PsETOXXOW-1" source="_9hxfhh7ME3PsETOXXOW-8" target="_9hxfhh7ME3PsETOXXOW-6">
          <mxGeometry width="160" relative="1" as="geometry">
            <mxPoint x="244" y="76" as="sourcePoint" />
            <mxPoint x="404" y="76" as="targetPoint" />
            <Array as="points">
              <mxPoint x="284" y="96" />
              <mxPoint x="284" y="36" />
            </Array>
          </mxGeometry>
        </mxCell>
        <mxCell id="_9hxfhh7ME3PsETOXXOW-30" value="Mnaage Vendor" style="ellipse;whiteSpace=wrap;html=1;fillColor=#f5f5f5;" vertex="1" parent="_9hxfhh7ME3PsETOXXOW-1">
          <mxGeometry x="104" y="650" width="160" height="40" as="geometry" />
        </mxCell>
        <mxCell id="_9hxfhh7ME3PsETOXXOW-32" value="Manage Account" style="ellipse;whiteSpace=wrap;html=1;fillColor=#f5f5f5;" vertex="1" parent="_9hxfhh7ME3PsETOXXOW-1">
          <mxGeometry x="105" y="386" width="160" height="40" as="geometry" />
        </mxCell>
        <mxCell id="_9hxfhh7ME3PsETOXXOW-48" value="Logout" style="ellipse;whiteSpace=wrap;html=1;fillColor=#f5f5f5;" vertex="1" parent="_9hxfhh7ME3PsETOXXOW-1">
          <mxGeometry x="104" y="716" width="160" height="40" as="geometry" />
        </mxCell>
        <mxCell id="_9hxfhh7ME3PsETOXXOW-52" value="&amp;lt;&amp;lt;extend&amp;gt;&amp;gt;" style="endArrow=open;endSize=12;dashed=1;html=1;rounded=0;exitX=1;exitY=0.5;exitDx=0;exitDy=0;entryX=0;entryY=0.5;entryDx=0;entryDy=0;" edge="1" parent="_9hxfhh7ME3PsETOXXOW-1" source="_9hxfhh7ME3PsETOXXOW-17" target="_9hxfhh7ME3PsETOXXOW-53">
          <mxGeometry width="160" relative="1" as="geometry">
            <mxPoint x="284" y="336" as="sourcePoint" />
            <mxPoint x="314" y="316" as="targetPoint" />
          </mxGeometry>
        </mxCell>
        <mxCell id="_9hxfhh7ME3PsETOXXOW-53" value="Apply Cuppon" style="ellipse;whiteSpace=wrap;html=1;fillColor=#f5f5f5;" vertex="1" parent="_9hxfhh7ME3PsETOXXOW-1">
          <mxGeometry x="294" y="246" width="104" height="40" as="geometry" />
        </mxCell>
        <mxCell id="_9hxfhh7ME3PsETOXXOW-2" value="Coustomer" style="shape=umlActor;verticalLabelPosition=bottom;verticalAlign=top;html=1;outlineConnect=0;" vertex="1" parent="1">
          <mxGeometry x="190" y="383" width="30" height="60" as="geometry" />
        </mxCell>
        <mxCell id="_9hxfhh7ME3PsETOXXOW-3" value="Vendor" style="shape=umlActor;verticalLabelPosition=bottom;verticalAlign=top;html=1;outlineConnect=0;" vertex="1" parent="1">
          <mxGeometry x="190" y="616" width="30" height="60" as="geometry" />
        </mxCell>
        <mxCell id="_9hxfhh7ME3PsETOXXOW-5" value="Admin" style="shape=umlActor;verticalLabelPosition=bottom;verticalAlign=top;html=1;outlineConnect=0;" vertex="1" parent="1">
          <mxGeometry x="740" y="536" width="30" height="60" as="geometry" />
        </mxCell>
        <mxCell id="_9hxfhh7ME3PsETOXXOW-22" value="" style="endArrow=none;html=1;rounded=0;entryX=1;entryY=0.3333333333333333;entryDx=0;entryDy=0;entryPerimeter=0;exitX=0;exitY=0.5;exitDx=0;exitDy=0;" edge="1" parent="1" source="_9hxfhh7ME3PsETOXXOW-6" target="_9hxfhh7ME3PsETOXXOW-2">
          <mxGeometry width="50" height="50" relative="1" as="geometry">
            <mxPoint x="280" y="396" as="sourcePoint" />
            <mxPoint x="330" y="346" as="targetPoint" />
          </mxGeometry>
        </mxCell>
        <mxCell id="_9hxfhh7ME3PsETOXXOW-23" value="" style="endArrow=none;html=1;rounded=0;exitX=1;exitY=0.3333333333333333;exitDx=0;exitDy=0;exitPerimeter=0;entryX=0;entryY=0.5;entryDx=0;entryDy=0;" edge="1" parent="1" source="_9hxfhh7ME3PsETOXXOW-2" target="_9hxfhh7ME3PsETOXXOW-8">
          <mxGeometry width="50" height="50" relative="1" as="geometry">
            <mxPoint x="290" y="376" as="sourcePoint" />
            <mxPoint x="340" y="326" as="targetPoint" />
          </mxGeometry>
        </mxCell>
        <mxCell id="_9hxfhh7ME3PsETOXXOW-24" value="" style="endArrow=none;html=1;rounded=0;exitX=1;exitY=0.3333333333333333;exitDx=0;exitDy=0;exitPerimeter=0;entryX=0;entryY=0.5;entryDx=0;entryDy=0;" edge="1" parent="1" source="_9hxfhh7ME3PsETOXXOW-2" target="_9hxfhh7ME3PsETOXXOW-10">
          <mxGeometry width="50" height="50" relative="1" as="geometry">
            <mxPoint x="290" y="366" as="sourcePoint" />
            <mxPoint x="340" y="316" as="targetPoint" />
          </mxGeometry>
        </mxCell>
        <mxCell id="_9hxfhh7ME3PsETOXXOW-25" value="" style="endArrow=none;html=1;rounded=0;exitX=1;exitY=0.3333333333333333;exitDx=0;exitDy=0;exitPerimeter=0;entryX=0;entryY=0.5;entryDx=0;entryDy=0;" edge="1" parent="1" source="_9hxfhh7ME3PsETOXXOW-2" target="_9hxfhh7ME3PsETOXXOW-12">
          <mxGeometry width="50" height="50" relative="1" as="geometry">
            <mxPoint x="290" y="426" as="sourcePoint" />
            <mxPoint x="340" y="376" as="targetPoint" />
          </mxGeometry>
        </mxCell>
        <mxCell id="_9hxfhh7ME3PsETOXXOW-26" value="" style="endArrow=none;html=1;rounded=0;exitX=1;exitY=0.3333333333333333;exitDx=0;exitDy=0;exitPerimeter=0;entryX=0;entryY=0.5;entryDx=0;entryDy=0;" edge="1" parent="1" source="_9hxfhh7ME3PsETOXXOW-2" target="_9hxfhh7ME3PsETOXXOW-11">
          <mxGeometry width="50" height="50" relative="1" as="geometry">
            <mxPoint x="290" y="476" as="sourcePoint" />
            <mxPoint x="340" y="426" as="targetPoint" />
          </mxGeometry>
        </mxCell>
        <mxCell id="_9hxfhh7ME3PsETOXXOW-27" value="" style="endArrow=none;html=1;rounded=0;exitX=1;exitY=0.3333333333333333;exitDx=0;exitDy=0;exitPerimeter=0;entryX=0;entryY=0.5;entryDx=0;entryDy=0;" edge="1" parent="1" source="_9hxfhh7ME3PsETOXXOW-2" target="_9hxfhh7ME3PsETOXXOW-17">
          <mxGeometry width="50" height="50" relative="1" as="geometry">
            <mxPoint x="290" y="536" as="sourcePoint" />
            <mxPoint x="340" y="486" as="targetPoint" />
          </mxGeometry>
        </mxCell>
        <mxCell id="_9hxfhh7ME3PsETOXXOW-28" value="" style="endArrow=none;html=1;rounded=0;exitX=1;exitY=0.3333333333333333;exitDx=0;exitDy=0;exitPerimeter=0;entryX=0;entryY=0.5;entryDx=0;entryDy=0;" edge="1" parent="1" source="_9hxfhh7ME3PsETOXXOW-2" target="_9hxfhh7ME3PsETOXXOW-9">
          <mxGeometry width="50" height="50" relative="1" as="geometry">
            <mxPoint x="290" y="566" as="sourcePoint" />
            <mxPoint x="340" y="516" as="targetPoint" />
          </mxGeometry>
        </mxCell>
        <mxCell id="_9hxfhh7ME3PsETOXXOW-33" value="" style="endArrow=none;html=1;rounded=0;exitX=1;exitY=0.3333333333333333;exitDx=0;exitDy=0;exitPerimeter=0;entryX=0;entryY=0.5;entryDx=0;entryDy=0;" edge="1" parent="1" source="_9hxfhh7ME3PsETOXXOW-2" target="_9hxfhh7ME3PsETOXXOW-32">
          <mxGeometry width="50" height="50" relative="1" as="geometry">
            <mxPoint x="280" y="556" as="sourcePoint" />
            <mxPoint x="330" y="506" as="targetPoint" />
          </mxGeometry>
        </mxCell>
        <mxCell id="_9hxfhh7ME3PsETOXXOW-35" value="" style="endArrow=none;html=1;rounded=0;exitX=1;exitY=0.3333333333333333;exitDx=0;exitDy=0;exitPerimeter=0;entryX=0;entryY=0.5;entryDx=0;entryDy=0;" edge="1" parent="1" source="_9hxfhh7ME3PsETOXXOW-3" target="_9hxfhh7ME3PsETOXXOW-13">
          <mxGeometry width="50" height="50" relative="1" as="geometry">
            <mxPoint x="300" y="796" as="sourcePoint" />
            <mxPoint x="350" y="746" as="targetPoint" />
          </mxGeometry>
        </mxCell>
        <mxCell id="_9hxfhh7ME3PsETOXXOW-36" value="" style="endArrow=none;html=1;rounded=0;exitX=1;exitY=0.3333333333333333;exitDx=0;exitDy=0;exitPerimeter=0;entryX=0;entryY=0.5;entryDx=0;entryDy=0;" edge="1" parent="1" source="_9hxfhh7ME3PsETOXXOW-3" target="_9hxfhh7ME3PsETOXXOW-15">
          <mxGeometry width="50" height="50" relative="1" as="geometry">
            <mxPoint x="290" y="736" as="sourcePoint" />
            <mxPoint x="340" y="686" as="targetPoint" />
          </mxGeometry>
        </mxCell>
        <mxCell id="_9hxfhh7ME3PsETOXXOW-38" value="" style="endArrow=none;html=1;rounded=0;exitX=1;exitY=0.3333333333333333;exitDx=0;exitDy=0;exitPerimeter=0;entryX=0;entryY=0.5;entryDx=0;entryDy=0;" edge="1" parent="1" source="_9hxfhh7ME3PsETOXXOW-3" target="_9hxfhh7ME3PsETOXXOW-32">
          <mxGeometry width="50" height="50" relative="1" as="geometry">
            <mxPoint x="290" y="606" as="sourcePoint" />
            <mxPoint x="340" y="556" as="targetPoint" />
          </mxGeometry>
        </mxCell>
        <mxCell id="_9hxfhh7ME3PsETOXXOW-39" value="" style="endArrow=none;html=1;rounded=0;exitX=1;exitY=0.3333333333333333;exitDx=0;exitDy=0;exitPerimeter=0;entryX=0;entryY=0.5;entryDx=0;entryDy=0;" edge="1" parent="1" source="_9hxfhh7ME3PsETOXXOW-3" target="_9hxfhh7ME3PsETOXXOW-6">
          <mxGeometry width="50" height="50" relative="1" as="geometry">
            <mxPoint x="270" y="596" as="sourcePoint" />
            <mxPoint x="320" y="546" as="targetPoint" />
          </mxGeometry>
        </mxCell>
        <mxCell id="_9hxfhh7ME3PsETOXXOW-41" value="" style="endArrow=none;html=1;rounded=0;exitX=1;exitY=0.5;exitDx=0;exitDy=0;entryX=0;entryY=0.3333333333333333;entryDx=0;entryDy=0;entryPerimeter=0;" edge="1" parent="1" source="_9hxfhh7ME3PsETOXXOW-8" target="_9hxfhh7ME3PsETOXXOW-5">
          <mxGeometry width="50" height="50" relative="1" as="geometry">
            <mxPoint x="630" y="586" as="sourcePoint" />
            <mxPoint x="680" y="536" as="targetPoint" />
          </mxGeometry>
        </mxCell>
        <mxCell id="_9hxfhh7ME3PsETOXXOW-42" value="" style="endArrow=none;html=1;rounded=0;entryX=0;entryY=0.3333333333333333;entryDx=0;entryDy=0;entryPerimeter=0;exitX=1;exitY=0.5;exitDx=0;exitDy=0;" edge="1" parent="1" source="_9hxfhh7ME3PsETOXXOW-32" target="_9hxfhh7ME3PsETOXXOW-5">
          <mxGeometry width="50" height="50" relative="1" as="geometry">
            <mxPoint x="610" y="596" as="sourcePoint" />
            <mxPoint x="660" y="546" as="targetPoint" />
          </mxGeometry>
        </mxCell>
        <mxCell id="_9hxfhh7ME3PsETOXXOW-43" value="" style="endArrow=none;html=1;rounded=0;entryX=0;entryY=0.3333333333333333;entryDx=0;entryDy=0;entryPerimeter=0;exitX=1;exitY=0.5;exitDx=0;exitDy=0;" edge="1" parent="1" source="_9hxfhh7ME3PsETOXXOW-13" target="_9hxfhh7ME3PsETOXXOW-5">
          <mxGeometry width="50" height="50" relative="1" as="geometry">
            <mxPoint x="570" y="696" as="sourcePoint" />
            <mxPoint x="620" y="646" as="targetPoint" />
          </mxGeometry>
        </mxCell>
        <mxCell id="_9hxfhh7ME3PsETOXXOW-44" value="" style="endArrow=none;html=1;rounded=0;entryX=0;entryY=0.3333333333333333;entryDx=0;entryDy=0;entryPerimeter=0;exitX=1;exitY=0.5;exitDx=0;exitDy=0;" edge="1" parent="1" source="_9hxfhh7ME3PsETOXXOW-14" target="_9hxfhh7ME3PsETOXXOW-5">
          <mxGeometry width="50" height="50" relative="1" as="geometry">
            <mxPoint x="560" y="726" as="sourcePoint" />
            <mxPoint x="610" y="676" as="targetPoint" />
          </mxGeometry>
        </mxCell>
        <mxCell id="_9hxfhh7ME3PsETOXXOW-45" value="" style="endArrow=none;html=1;rounded=0;entryX=0;entryY=0.3333333333333333;entryDx=0;entryDy=0;entryPerimeter=0;exitX=1;exitY=0.5;exitDx=0;exitDy=0;" edge="1" parent="1" source="_9hxfhh7ME3PsETOXXOW-15" target="_9hxfhh7ME3PsETOXXOW-5">
          <mxGeometry width="50" height="50" relative="1" as="geometry">
            <mxPoint x="600" y="736" as="sourcePoint" />
            <mxPoint x="650" y="686" as="targetPoint" />
          </mxGeometry>
        </mxCell>
        <mxCell id="_9hxfhh7ME3PsETOXXOW-46" value="" style="endArrow=none;html=1;rounded=0;entryX=0;entryY=0.3333333333333333;entryDx=0;entryDy=0;entryPerimeter=0;exitX=1;exitY=0.5;exitDx=0;exitDy=0;" edge="1" parent="1" source="_9hxfhh7ME3PsETOXXOW-16" target="_9hxfhh7ME3PsETOXXOW-5">
          <mxGeometry width="50" height="50" relative="1" as="geometry">
            <mxPoint x="570" y="806" as="sourcePoint" />
            <mxPoint x="620" y="756" as="targetPoint" />
          </mxGeometry>
        </mxCell>
        <mxCell id="_9hxfhh7ME3PsETOXXOW-47" value="" style="endArrow=none;html=1;rounded=0;entryX=0;entryY=0.3333333333333333;entryDx=0;entryDy=0;entryPerimeter=0;exitX=1;exitY=0.5;exitDx=0;exitDy=0;" edge="1" parent="1" source="_9hxfhh7ME3PsETOXXOW-30" target="_9hxfhh7ME3PsETOXXOW-5">
          <mxGeometry width="50" height="50" relative="1" as="geometry">
            <mxPoint x="580" y="816" as="sourcePoint" />
            <mxPoint x="630" y="766" as="targetPoint" />
          </mxGeometry>
        </mxCell>
        <mxCell id="_9hxfhh7ME3PsETOXXOW-49" value="" style="endArrow=none;html=1;rounded=0;entryX=1;entryY=0.3333333333333333;entryDx=0;entryDy=0;entryPerimeter=0;exitX=0;exitY=0.5;exitDx=0;exitDy=0;" edge="1" parent="1" source="_9hxfhh7ME3PsETOXXOW-48" target="_9hxfhh7ME3PsETOXXOW-3">
          <mxGeometry width="50" height="50" relative="1" as="geometry">
            <mxPoint x="280" y="846" as="sourcePoint" />
            <mxPoint x="330" y="796" as="targetPoint" />
          </mxGeometry>
        </mxCell>
        <mxCell id="_9hxfhh7ME3PsETOXXOW-50" value="" style="endArrow=none;html=1;rounded=0;exitX=1;exitY=0.5;exitDx=0;exitDy=0;entryX=0;entryY=0.3333333333333333;entryDx=0;entryDy=0;entryPerimeter=0;" edge="1" parent="1" source="_9hxfhh7ME3PsETOXXOW-48" target="_9hxfhh7ME3PsETOXXOW-5">
          <mxGeometry width="50" height="50" relative="1" as="geometry">
            <mxPoint x="550" y="896" as="sourcePoint" />
            <mxPoint x="600" y="846" as="targetPoint" />
          </mxGeometry>
        </mxCell>
        <mxCell id="_9hxfhh7ME3PsETOXXOW-51" value="" style="endArrow=none;html=1;rounded=0;entryX=1;entryY=0.3333333333333333;entryDx=0;entryDy=0;entryPerimeter=0;exitX=0;exitY=0.5;exitDx=0;exitDy=0;" edge="1" parent="1" source="_9hxfhh7ME3PsETOXXOW-48" target="_9hxfhh7ME3PsETOXXOW-2">
          <mxGeometry width="50" height="50" relative="1" as="geometry">
            <mxPoint x="290" y="596" as="sourcePoint" />
            <mxPoint x="340" y="546" as="targetPoint" />
          </mxGeometry>
        </mxCell>
        <mxCell id="_9hxfhh7ME3PsETOXXOW-56" value="&lt;font style=&quot;font-size: 19px;&quot;&gt;Use Case for BossShop e-commarce site&lt;/font&gt;" style="text;html=1;align=center;verticalAlign=middle;resizable=0;points=[];autosize=1;strokeColor=none;fillColor=none;" vertex="1" parent="1">
          <mxGeometry x="280" y="1000" width="370" height="40" as="geometry" />
        </mxCell>
        <mxCell id="_9hxfhh7ME3PsETOXXOW-40" value="" style="endArrow=none;html=1;rounded=0;entryX=0;entryY=0.5;entryDx=0;entryDy=0;exitX=1;exitY=0.3333333333333333;exitDx=0;exitDy=0;exitPerimeter=0;" edge="1" parent="1" source="_9hxfhh7ME3PsETOXXOW-3" target="_9hxfhh7ME3PsETOXXOW-8">
          <mxGeometry width="50" height="50" relative="1" as="geometry">
            <mxPoint x="220" y="666" as="sourcePoint" />
            <mxPoint x="330" y="566" as="targetPoint" />
          </mxGeometry>
        </mxCell>
        <mxCell id="_9hxfhh7ME3PsETOXXOW-57" value="" style="swimlane;startSize=0;" vertex="1" parent="1">
          <mxGeometry x="150" y="190" width="670" height="870" as="geometry" />
        </mxCell>
      </root>
    </mxGraphModel>
  </diagram>
</mxfile>
